#VRML V2.0 utf8
Background{
  skyColor 1 1 1
}
Transform{
translation -0.05 0 -0.05
 children[
  DEF Asi3 Shape{
 appearance Appearance{
   material Material{
    diffuseColor 1 1 1
  }

 }
geometry IndexedFaceSet{
 coord Coordinate{
  point [
0 0 0,
0 0 0.1,
0.1 0 0.1,
0.1 0 0,

0 -0.03 0,
0 -0.03 0.14,
0.1 -0.03 0.14,
0.1 -0.03 0,

0 -0.1 0,
0 -0.1 0.25,
0.1 -0.1 0.25,
0.1 -0.1 0
  ]
 }
   coordIndex[
0,1,5,4,-1,
1,2,6,5,-1,
2,3,7,6,-1,
3,0,4,7,-1,
4,5,9,8,-1,
5,6,10,9,-1,
6,7,11,10,-1,
7,4,8,11,-1,
0,3,2,1,-1,
8,9,10,11,-1
   ]
solid FALSE
}
}
 ]
}
