#VRML V2.0 utf8
Background{
  skyColor 1 1 1
}
Transform{
translation -0.03 -0.32 -0.035
 children[
  DEF Ude Shape{
 appearance Appearance{
  texture ImageTexture{
  url"ude.jpg"
  }
  textureTransform TextureTransform{
   rotation 1.57
   translation 0 0 
   }
 }
geometry IndexedFaceSet{
 coord Coordinate{
  point [
0 -0.01 -0.01,
0 -0.01 0.06,
0.08 0 0.06,
0.08 0 -0.01,
0 0.08 0,
0 0.08 0.05,
0.06 0.08 0.05,
0.06 0.08 0,
-0.005 0.32 0,
-0.005 0.32 0.08,
0.095 0.32 0.08,
0.095 0.32 0
  ]
 }
   coordIndex[


5,6,10,9,-1,

7,4,8,11,-1,

8,9,10,11,-1
   ]
solid FALSE
}
}



  DEF Ude Shape{
 appearance Appearance{
  texture ImageTexture{
  url"ude.jpg"
  }
  textureTransform TextureTransform{
   rotation 1.57
   translation 0 0 
   }
 }
geometry IndexedFaceSet{
 coord Coordinate{
  point [
0 -0.01 -0.01,
0 -0.01 0.06,
0.08 0 0.06,
0.08 0 -0.01,
0 0.08 0,
0 0.08 0.05,
0.06 0.08 0.05,
0.06 0.08 0,
-0.005 0.32 0,
-0.005 0.32 0.08,
0.095 0.32 0.08,
0.095 0.32 0
  ]
 }
   coordIndex[
4,5,9,8,-1,
1,2,6,5,-1,

6,7,11,10,-1
   ]
solid FALSE
}
}

  DEF Ude Shape{
 appearance Appearance{
  texture ImageTexture{
  url"ude.jpg"
  }
  textureTransform TextureTransform{
   rotation 0
   translation 0 0.3 
   }
 }
geometry IndexedFaceSet{
 coord Coordinate{
  point [
0 -0.01 -0.01,
0 -0.01 0.06,
0.08 0 0.06,
0.08 0 -0.01,
0 0.08 0,
0 0.08 0.05,
0.06 0.08 0.05,
0.06 0.08 0,
-0.005 0.32 0,
-0.005 0.32 0.08,
0.095 0.32 0.08,
0.095 0.32 0
  ]
 }
   coordIndex[
0,1,5,4,-1,
2,3,7,6,-1,
3,0,4,7,-1,
0,3,2,1,-1,

   ]
solid FALSE
}
}


 ]
}
