#VRML V2.0 utf8
Background{
  skyColor 1 1 1
}
Transform{
  translation -0.4 0.10 0.5
  rotation 0 0 1 0.8
  scale 0.2 0.2 0.2
  children[
Shape{
  appearance Appearance{
    material Material{
     diffuseColor 0 1 0
    }
  }
  geometry IndexedFaceSet{
    coord Coordinate{
      point[
        0.000   0.000   1.000
        0.195   0.000   0.981,
        0.191   0.038   0.981,
        0.180   0.075   0.981,
        0.162   0.108   0.981,
        0.138   0.138   0.981,
        0.108   0.162   0.981,
        0.075   0.180   0.981,
        0.038   0.191   0.981,
        0.000   0.195   0.981,
       -0.038   0.191   0.981,
       -0.075   0.180   0.981,
       -0.108   0.162   0.981,
       -0.138   0.138   0.981,
       -0.162   0.108   0.981,
       -0.180   0.075   0.981,
       -0.191   0.038   0.981,
       -0.195   0.000   0.981,
        0.383   0.000   0.924,
        0.375   0.075   0.924,
        0.354   0.146   0.924,
        0.318   0.213   0.924,
        0.271   0.271   0.924,
        0.213   0.318   0.924,
        0.146   0.354   0.924,
        0.075   0.375   0.924,
        0.000   0.383   0.924,
       -0.075   0.375   0.924,
       -0.146   0.354   0.924,
       -0.213   0.318   0.924,
       -0.271   0.271   0.924,
       -0.318   0.213   0.924,
       -0.354   0.146   0.924,
       -0.375   0.075   0.924,
       -0.383   0.000   0.924,
        0.556   0.000   0.831,
        0.545   0.108   0.831,
        0.513   0.213   0.831,
        0.462   0.309   0.831,
        0.393   0.393   0.831,
        0.309   0.462   0.831,
        0.213   0.513   0.831,
        0.108   0.545   0.831,
        0.000   0.556   0.831,
       -0.108   0.545   0.831,
       -0.213   0.513   0.831,
       -0.309   0.462   0.831,
       -0.393   0.393   0.831,
       -0.462   0.309   0.831,
       -0.513   0.213   0.831,
       -0.545   0.108   0.831,
       -0.556   0.000   0.831,
        0.707   0.000   0.707,
        0.694   0.138   0.707,
        0.653   0.271   0.707,
        0.588   0.393   0.707,
        0.500   0.500   0.707,
        0.393   0.588   0.707,
        0.271   0.653   0.707,
        0.138   0.694   0.707,
        0.000   0.707   0.707,
       -0.138   0.694   0.707,
       -0.271   0.653   0.707,
       -0.393   0.588   0.707,
       -0.500   0.500   0.707,
       -0.588   0.393   0.707,
       -0.653   0.271   0.707,
       -0.694   0.138   0.707,
       -0.707   0.000   0.707,
        0.831   0.000   0.556,
        0.815   0.162   0.556,
        0.768   0.318   0.556,
        0.691   0.462   0.556,
        0.588   0.588   0.556,
        0.462   0.691   0.556,
        0.318   0.768   0.556,
        0.162   0.815   0.556,
        0.000   0.831   0.556,
       -0.162   0.815   0.556,
       -0.318   0.768   0.556,
       -0.462   0.691   0.556,
       -0.588   0.588   0.556,
       -0.691   0.462   0.556,
       -0.768   0.318   0.556,
       -0.815   0.162   0.556,
       -0.831   0.000   0.556,
        0.924   0.000   0.383,
        0.906   0.180   0.383,
        0.854   0.354   0.383,
        0.768   0.513   0.383,
        0.653   0.653   0.383,
        0.513   0.768   0.383,
        0.354   0.854   0.383,
        0.180   0.906   0.383,
        0.000   0.924   0.383,
       -0.180   0.906   0.383,
       -0.354   0.854   0.383,
       -0.513   0.768   0.383,
       -0.653   0.653   0.383,
       -0.768   0.513   0.383,
       -0.854   0.354   0.383,
       -0.906   0.180   0.383,
       -0.924   0.000   0.383,
        0.981   0.000   0.195,
        0.962   0.191   0.195,
        0.906   0.375   0.195,
        0.815   0.545   0.195,
        0.694   0.694   0.195,
        0.545   0.815   0.195,
        0.375   0.906   0.195,
        0.191   0.962   0.195,
        0.000   0.981   0.195,
       -0.191   0.962   0.195,
       -0.375   0.906   0.195,
       -0.545   0.815   0.195,
       -0.694   0.694   0.195,
       -0.815   0.545   0.195,
       -0.906   0.375   0.195,
       -0.962   0.191   0.195,
       -0.981   0.000   0.195,
        1.000   0.000   0.000,
        0.981   0.195   0.000,
        0.924   0.383   0.000,
        0.831   0.556   0.000,
        0.707   0.707   0.000,
        0.556   0.831   0.000,
        0.383   0.924   0.000,
        0.195   0.981   0.000,
        0.000   1.000   0.000,
       -0.195   0.981   0.000,
       -0.383   0.924   0.000,
       -0.556   0.831   0.000,
       -0.707   0.707   0.000,
       -0.831   0.556   0.000,
       -0.924   0.383   0.000,
       -0.981   0.195   0.000,
       -1.000   0.000   0.000,
        0.981   0.000  -0.195,
        0.962   0.191  -0.195,
        0.906   0.375  -0.195,
        0.815   0.545  -0.195,
        0.694   0.694  -0.195,
        0.545   0.815  -0.195,
        0.375   0.906  -0.195,
        0.191   0.962  -0.195,
        0.000   0.981  -0.195,
       -0.191   0.962  -0.195,
       -0.375   0.906  -0.195,
       -0.545   0.815  -0.195,
       -0.694   0.694  -0.195,
       -0.815   0.545  -0.195,
       -0.906   0.375  -0.195,
       -0.962   0.191  -0.195,
       -0.981   0.000  -0.195,
        0.924   0.000  -0.383,
        0.906   0.180  -0.383,
        0.854   0.354  -0.383,
        0.768   0.513  -0.383,
        0.653   0.653  -0.383,
        0.513   0.768  -0.383,
        0.354   0.854  -0.383,
        0.180   0.906  -0.383,
        0.000   0.924  -0.383,
       -0.180   0.906  -0.383,
       -0.354   0.854  -0.383,
       -0.513   0.768  -0.383,
       -0.653   0.653  -0.383,
       -0.768   0.513  -0.383,
       -0.854   0.354  -0.383,
       -0.906   0.180  -0.383,
       -0.924   0.000  -0.383,
        0.831   0.000  -0.556,
        0.815   0.162  -0.556,
        0.768   0.318  -0.556,
        0.691   0.462  -0.556,
        0.588   0.588  -0.556,
        0.462   0.691  -0.556,
        0.318   0.768  -0.556,
        0.162   0.815  -0.556,
        0.000   0.831  -0.556,
       -0.162   0.815  -0.556,
       -0.318   0.768  -0.556,
       -0.462   0.691  -0.556,
       -0.588   0.588  -0.556,
       -0.691   0.462  -0.556,
       -0.768   0.318  -0.556,
       -0.815   0.162  -0.556,
       -0.831   0.000  -0.556,
        0.707   0.000  -0.707,
        0.694   0.138  -0.707,
        0.653   0.271  -0.707,
        0.588   0.393  -0.707,
        0.500   0.500  -0.707,
        0.393   0.588  -0.707,
        0.271   0.653  -0.707,
        0.138   0.694  -0.707,
        0.000   0.707  -0.707,
       -0.138   0.694  -0.707,
       -0.271   0.653  -0.707,
       -0.393   0.588  -0.707,
       -0.500   0.500  -0.707,
       -0.588   0.393  -0.707,
       -0.653   0.271  -0.707,
       -0.694   0.138  -0.707,
       -0.707   0.000  -0.707,
        0.556   0.000  -0.831,
        0.545   0.108  -0.831,
        0.513   0.213  -0.831,
        0.462   0.309  -0.831,
        0.393   0.393  -0.831,
        0.309   0.462  -0.831,
        0.213   0.513  -0.831,
        0.108   0.545  -0.831,
        0.000   0.556  -0.831,
       -0.108   0.545  -0.831,
       -0.213   0.513  -0.831,
       -0.309   0.462  -0.831,
       -0.393   0.393  -0.831,
       -0.462   0.309  -0.831,
       -0.513   0.213  -0.831,
       -0.545   0.108  -0.831,
       -0.556   0.000  -0.831,
        0.383   0.000  -0.924,
        0.375   0.075  -0.924,
        0.354   0.146  -0.924,
        0.318   0.213  -0.924,
        0.271   0.271  -0.924,
        0.213   0.318  -0.924,
        0.146   0.354  -0.924,
        0.075   0.375  -0.924,
        0.000   0.383  -0.924,
       -0.075   0.375  -0.924,
       -0.146   0.354  -0.924,
       -0.213   0.318  -0.924,
       -0.271   0.271  -0.924,
       -0.318   0.213  -0.924,
       -0.354   0.146  -0.924,
       -0.375   0.075  -0.924,
       -0.383   0.000  -0.924,
        0.195   0.000  -0.981,
        0.191   0.038  -0.981,
        0.180   0.075  -0.981,
        0.162   0.108  -0.981,
        0.138   0.138  -0.981,
        0.108   0.162  -0.981,
        0.075   0.180  -0.981,
        0.038   0.191  -0.981,
        0.000   0.195  -0.981,
       -0.038   0.191  -0.981,
       -0.075   0.180  -0.981,
       -0.108   0.162  -0.981,
       -0.138   0.138  -0.981,
       -0.162   0.108  -0.981,
       -0.180   0.075  -0.981,
       -0.191   0.038  -0.981,
       -0.195   0.000  -0.981,
        0.000   0.000  -1.000
      ]
    }
  coordIndex[
    0 1 2 -1,
    0 2 3 -1,
    0 3 4 -1,
    0 4 5 -1,
    0 5 6 -1,
    0 6 7 -1,
    0 7 8 -1,
    0 8 9 -1,
    0 9 10 -1,
    0 10 11 -1,
    0 11 12 -1,
    0 12 13 -1,
    0 13 14 -1,
    0 14 15 -1,
    0 15 16 -1,
    0 16 17 -1,
    0 17 1 -1,
    2 1 18 19 -1,
    3 2 19 20 -1,
    4 3 20 21 -1,
    5 4 21 22 -1,
    6 5 22 23 -1,
    7 6 23 24 -1,
    8 7 24 25 -1,
    9 8 25 26 -1,
    10 9 26 27 -1,
    11 10 27 28 -1,
    12 11 28 29 -1,
    13 12 29 30 -1,
    14 13 30 31 -1,
    15 14 31 32 -1,
    16 15 32 33 -1,
    17 16 33 34 -1,
    1 17 34 18 -1,
    19 18 35 36 -1,
    20 19 36 37 -1,
    21 20 37 38 -1,
    22 21 38 39 -1,
    23 22 39 40 -1,
    24 23 40 41 -1,
    25 24 41 42 -1,
    26 25 42 43 -1,
    27 26 43 44 -1,
    28 27 44 45 -1,
    29 28 45 46 -1,
    30 29 46 47 -1,
    31 30 47 48 -1,
    32 31 48 49 -1,
    33 32 49 50 -1,
    34 33 50 51 -1,
    18 34 51 35 -1,
    36 35 52 53 -1,
    37 36 53 54 -1,
    38 37 54 55 -1,
    39 38 55 56 -1,
    40 39 56 57 -1,
    41 40 57 58 -1,
    42 41 58 59 -1,
    43 42 59 60 -1,
    44 43 60 61 -1,
    45 44 61 62 -1,
    46 45 62 63 -1,
    47 46 63 64 -1,
    48 47 64 65 -1,
    49 48 65 66 -1,
    50 49 66 67 -1,
    51 50 67 68 -1,
    35 51 68 52 -1,
    53 52 69 70 -1,
    54 53 70 71 -1,
    55 54 71 72 -1,
    56 55 72 73 -1,
    57 56 73 74 -1,
    58 57 74 75 -1,
    59 58 75 76 -1,
    60 59 76 77 -1,
    61 60 77 78 -1,
    62 61 78 79 -1,
    63 62 79 80 -1,
    64 63 80 81 -1,
    65 64 81 82 -1,
    66 65 82 83 -1,
    67 66 83 84 -1,
    68 67 84 85 -1,
    52 68 85 69 -1,
    70 69 86 87 -1,
    71 70 87 88 -1,
    72 71 88 89 -1,
    73 72 89 90 -1,
    74 73 90 91 -1,
    75 74 91 92 -1,
    76 75 92 93 -1,
    77 76 93 94 -1,
    78 77 94 95 -1,
    79 78 95 96 -1,
    80 79 96 97 -1,
    81 80 97 98 -1,
    82 81 98 99 -1,
    83 82 99 100 -1,
    84 83 100 101 -1,
    85 84 101 102 -1,
    69 85 102 86 -1,
    87 86 103 104 -1,
    88 87 104 105 -1,
    89 88 105 106 -1,
    90 89 106 107 -1,
    91 90 107 108 -1,
    92 91 108 109 -1,
    93 92 109 110 -1,
    94 93 110 111 -1,
    95 94 111 112 -1,
    96 95 112 113 -1,
    97 96 113 114 -1,
    98 97 114 115 -1,
    99 98 115 116 -1,
    100 99 116 117 -1,
    101 100 117 118 -1,
    102 101 118 119 -1,
    86 102 119 103 -1,
    104 103 120 121 -1,
    105 104 121 122 -1,
    106 105 122 123 -1,
    107 106 123 124 -1,
    108 107 124 125 -1,
    109 108 125 126 -1,
    110 109 126 127 -1,
    111 110 127 128 -1,
    112 111 128 129 -1,
    113 112 129 130 -1,
    114 113 130 131 -1,
    115 114 131 132 -1,
    116 115 132 133 -1,
    117 116 133 134 -1,
    118 117 134 135 -1,
    119 118 135 136 -1,
    103 119 136 120 -1,
    121 120 137 138 -1,
    122 121 138 139 -1,
    123 122 139 140 -1,
    124 123 140 141 -1,
    125 124 141 142 -1,
    126 125 142 143 -1,
    127 126 143 144 -1,
    128 127 144 145 -1,
    129 128 145 146 -1,
    130 129 146 147 -1,
    131 130 147 148 -1,
    132 131 148 149 -1,
    133 132 149 150 -1,
    134 133 150 151 -1,
    135 134 151 152 -1,
    136 135 152 153 -1,
    120 136 153 137 -1,
    138 137 154 155 -1,
    139 138 155 156 -1,
    140 139 156 157 -1,
    141 140 157 158 -1,
    142 141 158 159 -1,
    143 142 159 160 -1,
    144 143 160 161 -1,
    145 144 161 162 -1,
    146 145 162 163 -1,
    147 146 163 164 -1,
    148 147 164 165 -1,
    149 148 165 166 -1,
    150 149 166 167 -1,
    151 150 167 168 -1,
    152 151 168 169 -1,
    153 152 169 170 -1,
    137 153 170 154 -1,
    155 154 171 172 -1,
    156 155 172 173 -1,
    157 156 173 174 -1,
    158 157 174 175 -1,
    159 158 175 176 -1,
    160 159 176 177 -1,
    161 160 177 178 -1,
    162 161 178 179 -1,
    163 162 179 180 -1,
    164 163 180 181 -1,
    165 164 181 182 -1,
    166 165 182 183 -1,
    167 166 183 184 -1,
    168 167 184 185 -1,
    169 168 185 186 -1,
    170 169 186 187 -1,
    154 170 187 171 -1,
    172 171 188 189 -1,
    173 172 189 190 -1,
    174 173 190 191 -1,
    175 174 191 192 -1,
    176 175 192 193 -1,
    177 176 193 194 -1,
    178 177 194 195 -1,
    179 178 195 196 -1,
    180 179 196 197 -1,
    181 180 197 198 -1,
    182 181 198 199 -1,
    183 182 199 200 -1,
    184 183 200 201 -1,
    185 184 201 202 -1,
    186 185 202 203 -1,
    187 186 203 204 -1,
    171 187 204 188 -1,
    189 188 205 206 -1,
    190 189 206 207 -1,
    191 190 207 208 -1,
    192 191 208 209 -1,
    193 192 209 210 -1,
    194 193 210 211 -1,
    195 194 211 212 -1,
    196 195 212 213 -1,
    197 196 213 214 -1,
    198 197 214 215 -1,
    199 198 215 216 -1,
    200 199 216 217 -1,
    201 200 217 218 -1,
    202 201 218 219 -1,
    203 202 219 220 -1,
    204 203 220 221 -1,
    188 204 221 205 -1,
    206 205 222 223 -1,
    207 206 223 224 -1,
    208 207 224 225 -1,
    209 208 225 226 -1,
    210 209 226 227 -1,
    211 210 227 228 -1,
    212 211 228 229 -1,
    213 212 229 230 -1,
    214 213 230 231 -1,
    215 214 231 232 -1,
    216 215 232 233 -1,
    217 216 233 234 -1,
    218 217 234 235 -1,
    219 218 235 236 -1,
    220 219 236 237 -1,
    221 220 237 238 -1,
    205 221 238 222 -1,
    223 222 239 240 -1,
    224 223 240 241 -1,
    225 224 241 242 -1,
    226 225 242 243 -1,
    227 226 243 244 -1,
    228 227 244 245 -1,
    229 228 245 246 -1,
    230 229 246 247 -1,
    231 230 247 248 -1,
    232 231 248 249 -1,
    233 232 249 250 -1,
    234 233 250 251 -1,
    235 234 251 252 -1,
    236 235 252 253 -1,
    237 236 253 254 -1,
    238 237 254 255 -1,
    222 238 255 239 -1,
    240 239 256 -1,
    241 240 256 -1,
    242 241 256 -1,
    243 242 256 -1,
    244 243 256 -1,
    245 244 256 -1,
    246 245 256 -1,
    247 246 256 -1,
    248 247 256 -1,
    249 248 256 -1,
    250 249 256 -1,
    251 250 256 -1,
    252 251 256 -1,
    253 252 256 -1,
    254 253 256 -1,
    255 254 256 -1,
    239 255 256 -1
  ]
  solid TRUE
  }
}
  ]
}
