#VRML V2.0 utf8
Background{
skyColor 1 1 1 
}
Transform{
translation 0 0.1 0
children[

Shape{
appearance Appearance{
texture ImageTexture{
url"kao1.jpg"
}
}
geometry IndexedFaceSet{
coord Coordinate{
point[
0.1 0.1 0.1
-0.1 0.1 0.1
-0.1 -0.1 0.1
0.1 -0.1 0.1
0.1 0.1 -0.1
-0.1 0.1 -0.1
-0.1 -0.1 -0.1
0.1 -0.1 -0.1
]
}
coordIndex[
0,1,2,3,-1,
]
solid FALSE
}
}


Shape{
appearance Appearance{
texture ImageTexture{
url"kao2.jpg"
}}
geometry IndexedFaceSet{
coord Coordinate{
point[
0.1 0.1 0.1
-0.1 0.1 0.1
-0.1 -0.1 0.1
0.1 -0.1 0.1
0.1 0.1 -0.1
-0.1 0.1 -0.1
-0.1 -0.1 -0.1
0.1 -0.1 -0.1
]
}
coordIndex[
4,5,6,7,-1
0,4,5,1,-1
3,7,6,2,-1
]
solid FALSE
}
}

Shape{
appearance Appearance{
texture ImageTexture{
url"kao4.jpg"
}}
geometry IndexedFaceSet{
coord Coordinate{
point[
0.1 0.1 0.1
-0.1 0.1 0.1
-0.1 -0.1 0.1
0.1 -0.1 0.1
0.1 0.1 -0.1
-0.1 0.1 -0.1
-0.1 -0.1 -0.1
0.1 -0.1 -0.1
]
}
coordIndex[
1,5,6,2,-1,
]
solid FALSE
}
}

Shape{
appearance Appearance{
texture ImageTexture{
url"kao3.jpg"
}}
geometry IndexedFaceSet{
coord Coordinate{
point[
0.1 0.1 0.1
-0.1 0.1 0.1
-0.1 -0.1 0.1
0.1 -0.1 0.1
0.1 0.1 -0.1
-0.1 0.1 -0.1
-0.1 -0.1 -0.1
0.1 -0.1 -0.1
]
}
coordIndex[
0,4,7,3,-1
]
solid FALSE
}
}


]}