#VRML V2.0 utf8
Background{
  skyColor 1 1 1
}
Transform{
translation -0.035 -0.32 -0.04
 children[
  DEF Asi2 Shape{
 appearance Appearance{
  texture ImageTexture{
  url"fukurahagil.jpg"
  }
  textureTransform TextureTransform{
   rotation 1.57
   translation 0 0.3 
   }
 }
geometry IndexedFaceSet{
 coord Coordinate{
  point [
0 0 0,
0 0 0.08,
0.07 0 0.08,
0.07 0 0,

-0.02 0.2 -0.025,
-0.02 0.2 0.08,
0.09 0.2 0.08,
0.09 0.2 -0.025,

-0.02 0.32 -0.025,
-0.02 0.32 0.08,
0.09 0.32 0.08,
0.09 0.32 -0.025
  ]
 }
   coordIndex[
0,1,5,4,-1,
1,2,6,5,-1,
2,3,7,6,-1,
3,0,4,7,-1,
4,5,9,8,-1,
5,6,10,9,-1,
6,7,11,10,-1,
7,4,8,11,-1,
0,3,2,1,-1,
8,9,10,11,-1
   ]
solid FALSE
}
}
 ]
}
