#VRML V2.0 utf8
Background{
  skyColor 1 1 1
}
Transform{
 children[
  DEF Karada Shape{
 appearance Appearance{
    texture ImageTexture{
  url"karada.jpg"
  }
  textureTransform TextureTransform{
   rotation 0
   translation 0 0 
   }
 }
geometry IndexedFaceSet{
 coord Coordinate{
  point [
0 0 0,
0 0 0.18,
0.35 0 0.18,
0.35 0 0,
0 0.20 0,
0 0.20 0.18,
0.35 0.20 0.18,
0.35 0.20 0,
-0.025 0.50 0,
-0.025 0.50 0.18
0.375 0.50 0.18
0.375 0.50 0
  ]
 }
   coordIndex[
0,1,5,4,-1,
1,2,6,5,-1,
2,3,7,6,-1,
3,0,4,7,-1,
4,5,9,8,-1,

6,7,11,10,-1,
7,4,8,11,-1,
0,3,2,1,-1,

   ]
solid FALSE
}
}
  DEF Karada Shape{
 appearance Appearance{
    texture ImageTexture{
  url"karada.jpg"
  }
  textureTransform TextureTransform{
   rotation 0
   translation 0 0.25 
   }
 }
geometry IndexedFaceSet{
 coord Coordinate{
  point [
0 0 0,
0 0 0.18,
0.35 0 0.18,
0.35 0 0,
0 0.20 0,
0 0.20 0.18,
0.35 0.20 0.18,
0.35 0.20 0,
-0.025 0.50 0,
-0.025 0.50 0.18
0.375 0.50 0.18
0.375 0.50 0
  ]
 }
   coordIndex[
5,6,10,9,-1,
   ]
solid FALSE
}
}
  DEF Karada Shape{
 appearance Appearance{
    texture ImageTexture{
  url"karada.jpg"
  }
  textureTransform TextureTransform{
   rotation 0
   translation 0 0 
   }
 }
geometry IndexedFaceSet{
 coord Coordinate{
  point [
0 0 0,
0 0 0.18,
0.35 0 0.18,
0.35 0 0,
0 0.20 0,
0 0.20 0.18,
0.35 0.20 0.18,
0.35 0.20 0,
-0.025 0.50 0,
-0.025 0.50 0.18
0.375 0.50 0.18
0.375 0.50 0
  ]
 }
   coordIndex[

8,9,10,11,-1
   ]
solid FALSE
}
}
 

 ]
}
