#VRML V2.0 utf8
Background{
  skyColor 1 1 1
  }
  Shape{
    appearance Appearance{
      texture ImageTexture{
      url"asi.jpg"}
    } 
    geometry IndexedFaceSet{
      coord Coordinate{
        point[
        0 0 0,  
   	-0.04 -0.05 0.03, 
	-0.04 -0.17 0.03,  
        -0.01 -0.25 0, 
   	0 -0.34 0,  
	0.09 -0.34 0,  
       	0.09 -0.25 0,
	0.11-0.17 0.03,
	0.11 -0.05 0.03,
	0.08 0 0,

	0 0 -0.08,  
   	-0.04 -0.05 -0.11, 
	-0.04 -0.17 -0.11, 
        -0.01 -0.265 -0.08, 
   	0 -0.34 -0.08,  
	0.09 -0.34 -0.08,  
       	0.09 -0.265 -0.08,
	0.11-0.17 -0.11,
	0.11 -0.05 -0.11,
	0.08 0 -0.08,

	]
      }
  coordIndex[	
	0,1,8,9,-1,
	1,2,7,8,-1,
	2,3,6,7,-1,
	3,4,5,6,-1,
	9,8,18,19,-1,
	8,7,17,18,-1,
	7,6,16,17,-1,
	6,5,15,16,-1,
	19,18,11,10,-1,
	18,17,12,11,-1,
	17,16,13,12,-1,
	16,15,14,13,-1,
	10,11,1,0,-1,
	11,12,2,1,-1,
	12,13,3,2,-1,
	13,14,4,3,-1,
	10,0,9,19,-1,
	14,4,5,15,-1
      ]
      solid FALSE
      }
}	 