#VRML V2.0 utf8

Background{
    skyColor 1 1 1
}

Shape{
  appearance Appearance{
      texture ImageTexture{
     url "kobusi.jpg"
}
     material Material{
  }
}

geometry IndexedFaceSet{
    coord Coordinate{
      point[
  0.03 0 0.05,
  0.03 0 -0.05,
  -0.03 0 0.05,
  -0.03 0 -0.05,
  0.04 0.14 0.05,
  0.04 0.14 -0.05,
  -0.04 0.14 0.05,
  -0.04 0.14 -0.05
  ]
}


coordIndex[
  0,4,5,1,-1,
  2,6,7,3,-1,
 
 
]

solid FALSE

}
}

Shape{
  appearance Appearance{
      texture ImageTexture{
     url "kobusi1.jpg"
}
     material Material{
  }
}

geometry IndexedFaceSet{
    coord Coordinate{
      point[
  0.03 0 0.05,
  0.03 0 -0.05,
  -0.03 0 0.05,
  -0.03 0 -0.05,
  0.04 0.14 0.05,
  0.04 0.14 -0.05,
  -0.04 0.14 0.05,
  -0.04 0.14 -0.05
  ]
}


coordIndex[
  

  1,3,7,5,-1,
  0,2,6,4,-1,
  4,6,7,5,-1,
  0,2,3,1,-1
 
]

solid FALSE

}
}
