#VRML V2.0 utf8
Background{
skyColor 1 1 1 
}
Transform{
translation 0.2 0.1 0
children[

Shape{
appearance Appearance{
texture ImageTexture{
url"ude.jpg"
}}
geometry IndexedFaceSet{
coord Coordinate{
point[
-0.2 -0.1 0.07
-0.3 -0.1 0.07
-0.3 -0.1 -0.07
-0.2 -0.1 -0.07
-0.2 -0.4 0.07
-0.3 -0.4 0.07
-0.3 -0.4 -0.07
-0.2 -0.4 -0.07
]
}
coordIndex[
0,1,2,3,-1,
4,5,6,7,-1
0,3,7,4,-1
1,5,6,2,-1,
0,4,5,1,-1
3,7,6,2,-1
]
solid FALSE
}
}

Shape{
appearance Appearance{
texture ImageTexture{
url"ude.jpg"
}}
geometry IndexedFaceSet{
coord Coordinate{
point[
-0.2 -0.4 0.06
-0.3 -0.4 0.06
-0.3 -0.4 -0.06
-0.2 -0.4 -0.06
-0.2 -0.65 0.06
-0.3 -0.65 0.06
-0.3 -0.65 -0.06
-0.2 -0.65 -0.06
]
}
coordIndex[
0,1,2,3,-1,
4,5,6,7,-1
0,3,7,4,-1
1,5,6,2,-1,
0,4,5,1,-1
3,7,6,2,-1
]
solid FALSE
}
}

Shape{
appearance Appearance{
texture ImageTexture{
url"te.jpg"
}}
geometry IndexedFaceSet{
coord Coordinate{
point[
-0.2 -0.65 0.065
-0.31 -0.65 0.065
-0.31 -0.65 -0.065
-0.2 -0.65 -0.065
-0.2 -0.75 0.065
-0.31 -0.75 0.065
-0.31 -0.75 -0.065
-0.2 -0.75 -0.065
]
}
coordIndex[
0,1,2,3,-1,
4,5,6,7,-1
0,3,7,4,-1
1,5,6,2,-1,
0,4,5,1,-1
3,7,6,2,-1
]
solid FALSE
}
}

]}
