#VRML V2.0 utf8

Background{
    skyColor 1 1 1
}

Shape{
  appearance Appearance{
	  texture ImageTexture{
            url "kao1.jpg"
        }
    material Material{
  }
}

geometry IndexedFaceSet{
    coord Coordinate{
      point[
   0.13 0 0.11,
   0.13 0 -0.11,
  -0.13 0 0.11,
  -0.13 0 -0.11,
   0.13 0.24 0.11,
   0.13 0.24 -0.11,
  -0.13 0.24 0.11,
  -0.13 0.24 -0.11
  ]
}


coordIndex[
  
  0,2,6,4,-1

]

solid FALSE

}
}

Shape{
  appearance Appearance{
	  texture ImageTexture{
            url "kao2.jpg"
        }
    material Material{
  }
}

geometry IndexedFaceSet{
    coord Coordinate{
      point[
   0.13 0 0.11,
   0.13 0 -0.11,
  -0.13 0 0.11,
  -0.13 0 -0.11,
   0.13 0.24 0.11,
   0.13 0.24 -0.11,
  -0.13 0.24 0.11,
  -0.13 0.24 -0.11
  ]
}


coordIndex[
  
  0,4,5,1,-1,

]

solid FALSE

}
}

Shape{
  appearance Appearance{
	  texture ImageTexture{
            url "kao3.jpg"
        }
    material Material{
  }
}

geometry IndexedFaceSet{
    coord Coordinate{
      point[
   0.13 0 0.11,
   0.13 0 -0.11,
  -0.13 0 0.11,
  -0.13 0 -0.11,
   0.13 0.24 0.11,
   0.13 0.24 -0.11,
  -0.13 0.24 0.11,
  -0.13 0.24 -0.11
  ]
}


coordIndex[
  
  2,6,7,3,-1,

]

solid FALSE

}
}




Shape{
  appearance Appearance{
	  texture ImageTexture{
            url "kao4.jpg"
        }
    material Material{
  }
}

geometry IndexedFaceSet{
    coord Coordinate{
      point[
   0.13 0 0.11,
   0.13 0 -0.11,
  -0.13 0 0.11,
  -0.13 0 -0.11,
   0.13 0.24 0.11,
   0.13 0.24 -0.11,
  -0.13 0.24 0.11,
  -0.13 0.24 -0.11
  ]
}


coordIndex[
  
  4,6,7,5,-1
  0,2,3,1,-1,
  1,3,7,5,-1,
  
]

solid FALSE

}
}