#VRML V2.0 utf8

Background{
    skyColor 1 1 1
}

Shape{
  appearance Appearance{
         texture ImageTexture{
   url "syuzu1.jpg"
}
     material Material{
  }
}

geometry IndexedFaceSet{
    coord Coordinate{
      point[
  0.05 0 0.1,
  0.05 0 -0.1,
  -0.05 0 0.1,
  -0.05 0 -0.1,
  0.05 0.06 0.1,
  0.05 0.08 -0.1,
  -0.05 0.06 0.1,
  -0.05 0.08 -0.1
  ]
}


coordIndex[
 
  4,6,7,5,-1
 
]

solid FALSE

}
}

Shape{
  appearance Appearance{
         texture ImageTexture{
   url "syuzu2.jpg"
}
     material Material{
  }
}

geometry IndexedFaceSet{
    coord Coordinate{
      point[
  0.05 0 0.1,
  0.05 0 -0.1,
  -0.05 0 0.1,
  -0.05 0 -0.1,
  0.05 0.06 0.1,
  0.05 0.08 -0.1,
  -0.05 0.06 0.1,
  -0.05 0.08 -0.1
  ]
}


coordIndex[
  0,4,5,1,-1,

 
]

solid FALSE

}
}

Shape{
  appearance Appearance{
         texture ImageTexture{
   url "syuzu2.jpg"
}
     material Material{
  }
}

geometry IndexedFaceSet{
    coord Coordinate{
      point[
  0.05 0 0.1,
  0.05 0 -0.1,
  -0.05 0 0.1,
  -0.05 0 -0.1,
  0.05 0.06 0.1,
  0.05 0.08 -0.1,
  -0.05 0.06 0.1,
  -0.05 0.08 -0.1
  ]
}


coordIndex[
  
  2,6,7,3,-1,
 
]

solid FALSE

}
}

Shape{
  appearance Appearance{
         texture ImageTexture{
   url "syuzu3.jpg"
}
     material Material{
  }
}

geometry IndexedFaceSet{
    coord Coordinate{
      point[
  0.05 0 0.1,
  0.05 0 -0.1,
  -0.05 0 0.1,
  -0.05 0 -0.1,
  0.05 0.06 0.1,
  0.05 0.08 -0.1,
  -0.05 0.06 0.1,
  -0.05 0.08 -0.1
  ]
}


coordIndex[
  
  0,2,6,4,-1,
 
]

solid FALSE

}
}

Shape{
  appearance Appearance{
         texture ImageTexture{
   url "syuzu3.jpg"
}
     material Material{
  }
}

geometry IndexedFaceSet{
    coord Coordinate{
      point[
  0.05 0 0.1,
  0.05 0 -0.1,
  -0.05 0 0.1,
  -0.05 0 -0.1,
  0.05 0.06 0.1,
  0.05 0.08 -0.1,
  -0.05 0.06 0.1,
  -0.05 0.08 -0.1
  ]
}


coordIndex[
  
  1,3,7,5,-1,
 
]

solid FALSE

}
}
Shape{
  appearance Appearance{
     material Material{
  }
}

geometry IndexedFaceSet{
    coord Coordinate{
      point[
  0.05 0 0.1,
  0.05 0 -0.1,
  -0.05 0 0.1,
  -0.05 0 -0.1,
  0.05 0.06 0.1,
  0.05 0.08 -0.1,
  -0.05 0.06 0.1,
  -0.05 0.08 -0.1
  ]
}


coordIndex[
 

  0,2,3,1,-1,
 
]

solid FALSE

}
}
