#VRML V2.0 utf8
Background{
  skyColor 1 1 1
}
Transform{
 children[
  DEF Kosi Shape{
 appearance Appearance{
  texture ImageTexture{
  url"kosi.jpg"
  }
  textureTransform TextureTransform{
   rotation 0
   translation 0 0 
   }
   }
geometry IndexedFaceSet{
 coord Coordinate{
  point [
0 0 0,
0 0 0.19,
0.32 0 0.19,
0.32 0 0,

-0.01 0.1 -0.04,
-0.01 0.1 0.19,
0.33 0.1 0.19,
0.33 0.1 -0.04,

-0.01 0.2 0,
-0.01 0.2 0.19
0.33 0.2 0.19
0.33 0.2 0
  ]
 }
   coordIndex[

1,2,6,5,-1,
2,3,7,6,-1,
3,0,4,7,-1,
4,5,9,8,-1,
5,6,10,9,-1,
6,7,11,10,-1,
7,4,8,11,-1,
0,3,2,1,-1,
8,9,10,11,-1
0,1,5,4,-1
   ]
solid FALSE
}
}


 ]
}
