#VRML V2.0 utf8
Background{
  skyColor 1 1 1
  }
Transform{
  translation  0 0 0
rotation 1 0 0 -1.57
   children[
  Shape{
     appearance Appearance{
      texture ImageTexture{
      url"siro.jpg"}
    }  
    geometry IndexedFaceSet{
      coord Coordinate{
        point[
        0 0 0,  
        0.1 0 0,  
   	0.02 -0.27 -0.03,  
	0.08 -0.27 -0.03, 
	0 0 -0.05,  
        0.02 -0.27 -0.05, 
   	0.1 0 -0.05,  
	0.08 -0.27 -0.05,  
       ]
      }
  coordIndex[	
	0,2,3,1,-1,
	1,3,7,6,-1,
	6,7,5,4,-1,
	4,5,2,0,-1,
	4,0,1,6,-1,
	5,2,3,7,-1
      ]
      solid FALSE
      }
}	 
]
}