#VRML V2.0 utf8
Background{
  skyColor 1 1 1
  }
Transform{
  translation  0 0 0
rotation 0 1 0 1.57
   children[
  Shape{
    appearance Appearance{
      texture ImageTexture{
      url"asi.jpg"}
    } 
    geometry IndexedFaceSet{
      coord Coordinate{
        point[
        0 0 0,  
   	0 -0.20 0, 
	0.01 -0.27 -0.01,  
        0.05 -0.27 -0.01, 
   	0.08 -0.20 -0.01,  
	0.10 -0.16 0, 
       	0.10 0 0,
	
	0 0 -0.06,  
   	0 -0.20 -0.06, 
	0.01 -0.27 -0.05,  
        0.05 -0.27 -0.05, 
   	0.08 -0.20 -0.05,  
	0.10 -0.16 -0.06, 
       	0.10 0 -0.06,
	

	]
      }
  coordIndex[	
	0,1,5,6,-1,
	1,4,5,-1,
	1,2,3,4,-1,
	6,5,12,13,-1,
	5,4,11,12,-1,
	4,3,10,11,-1,
	13,12,8,7,-1,
	12,11,8,-1,
	11,10,9,8,-1,
	7,8,1,0,-1,
	8,9,2,1,-1,
	7,0,6,13,-1,
	9,2,3,10,-1
	
      ]
      solid FALSE
      }
}	 
]
}