#VRML V2.0 utf8

Background{
    skyColor 1 1 1
}

Shape{
  appearance Appearance{
     texture ImageTexture{
        url "ketu1.jpg"
}
     material Material{
  }
}

geometry IndexedFaceSet{
    coord Coordinate{
      point[
  0.25 0 0.13,
  0.25 0 -0.13,
  -0.25 0 0.13,
  -0.25 0 -0.13,
  0.25 0.28 0.13,
  0.25 0.28 -0.13,
  -0.25 0.28 0.13,
  -0.25 0.28 -0.13
  ]
}


coordIndex[
  
  0,2,6,4,-1,
  
 
]

solid FALSE

}
}

Shape{
  appearance Appearance{
     texture ImageTexture{
        url "ketu2.jpg"
}
     material Material{
  }
}

geometry IndexedFaceSet{
    coord Coordinate{
      point[
  0.25 0 0.13,
  0.25 0 -0.13,
  -0.25 0 0.13,
  -0.25 0 -0.13,
  0.25 0.28 0.13,
  0.25 0.28 -0.13,
  -0.25 0.28 0.13,
  -0.25 0.28 -0.13
  ]
}


coordIndex[
  
  1,3,7,5,-1,
 
]

solid FALSE

}
}

Shape{
  appearance Appearance{
     texture ImageTexture{
        url "ketu3.jpg"
}
     material Material{
  }
}

geometry IndexedFaceSet{
    coord Coordinate{
      point[
  0.25 0 0.13,
  0.25 0 -0.13,
  -0.25 0 0.13,
  -0.25 0 -0.13,
  0.25 0.28 0.13,
  0.25 0.28 -0.13,
  -0.25 0.28 0.13,
  -0.25 0.28 -0.13
  ]
}


coordIndex[

  0,4,5,1,-1,

 
]

solid FALSE

}
}

Shape{
  appearance Appearance{
     texture ImageTexture{
        url "ketu3.jpg"
}
     material Material{
  }
}

geometry IndexedFaceSet{
    coord Coordinate{
      point[
  0.25 0 0.13,
  0.25 0 -0.13,
  -0.25 0 0.13,
  -0.25 0 -0.13,
  0.25 0.28 0.13,
  0.25 0.28 -0.13,
  -0.25 0.28 0.13,
  -0.25 0.28 -0.13
  ]
}


coordIndex[
  
  2,6,7,3,-1,
 
]

solid FALSE

}
}

