#VRML V2.0 utf8
Background{
  skyColor 1 1 1
}
Transform{
translation -0.05 -0.28 -0.035
 children[
  DEF Ude2 Shape{
 appearance Appearance{
 texture ImageTexture{
  url"ninoude.jpg"
  }
  textureTransform TextureTransform{
   rotation 0
   translation 0 0 
   }
 }
geometry IndexedFaceSet{
 coord Coordinate{
  point [
0 0 -0.01,
0 0 0.06,
0.1 0 0.06,
0.1 0 -0.01,

0 0.03 0,
0 0.03 0.06,
0.09 0.03 0.06,
0.09 0.03 0,

-0.01 0.28 -0.02,
-0.01 0.28 0.11,
0.09 0.28 0.11,
0.09 0.28 -0.02
  ]
 }
   coordIndex[
0,1,5,4,-1,
1,2,6,5,-1,
2,3,7,6,-1,
3,0,4,7,-1,
4,5,9,8,-1,
5,6,10,9,-1,
6,7,11,10,-1,
7,4,8,11,-1,
0,3,2,1,-1,

   ]
solid FALSE
}
}
  DEF Ude2 Shape{
 appearance Appearance{
 texture ImageTexture{
  url"karada.jpg"
  }
  textureTransform TextureTransform{
   rotation 0
   translation 0.2 0 
   }
 }
geometry IndexedFaceSet{
 coord Coordinate{
  point [
0 0 -0.01,
0 0 0.06,
0.1 0 0.06,
0.1 0 -0.01,

0 0.03 0,
0 0.03 0.06,
0.09 0.03 0.06,
0.09 0.03 0,

-0.01 0.28 -0.02,
-0.01 0.28 0.11,
0.09 0.28 0.11,
0.09 0.28 -0.02
  ]
 }
   coordIndex[

8,9,10,11,-1
   ]
solid FALSE
}
}
 ]
}
