#VRML V2.0 utf8
Background{
skyColor 1 1 1 
}

Transform{
translation 0 0.1 0
children[

Shape{
appearance Appearance{
texture ImageTexture{
url"doutai.jpg"
}

}
geometry IndexedFaceSet{
coord Coordinate{
point[
-0.2 -0.1 0.11
0.2 -0.1 0.11
0.2 -0.1 -0.11
-0.2 -0.1 -0.11
-0.2 -0.7 0.11
0.2 -0.7 0.11
0.2 -0.7 -0.11
-0.2 -0.7 -0.11
]
}
coordIndex[
0,4,5,1,-1
]
solid FALSE
}
}

Shape{
appearance Appearance{

texture ImageTexture{
url"doutai2.jpg"
}
}
geometry IndexedFaceSet{
coord Coordinate{
point[
-0.2 -0.1 0.11
0.2 -0.1 0.11
0.2 -0.1 -0.11
-0.2 -0.1 -0.11
-0.2 -0.7 0.11
0.2 -0.7 0.11
0.2 -0.7 -0.11
-0.2 -0.7 -0.11
]
}
coordIndex[
0,1,2,3,-1,
4,5,6,7,-1
0,4,7,3,-1
1,5,6,2,-1,
3,7,6,2,-1
]
solid FALSE
}
}


]}