#VRML V2.0 utf8

Background{
    skyColor 1 1 1
}

Shape{
  appearance Appearance{
    texture ImageTexture{
         url "doutai1.jpg"
}
     material Material{
  }
}

geometry IndexedFaceSet{
    coord Coordinate{
      point[
  0.25 0 0.15,
  0.25 0 -0.15,
  -0.25 0 0.15,
  -0.25 0 -0.15,
  0.25 0.52 0.15,
  0.25 0.52 -0.15,
  -0.25 0.52 0.15,
  -0.25 0.52 -0.15

]
}


coordIndex[

  
  0,2,6,4,-1
 
]

solid FALSE

}
}

Shape{
  appearance Appearance{
    texture ImageTexture{
         url "doutai2.jpg"
}
     material Material{
  }
}

geometry IndexedFaceSet{
    coord Coordinate{
      point[
  0.25 0 0.15,
  0.25 0 -0.15,
  -0.25 0 0.15,
  -0.25 0 -0.15,
  0.25 0.52 0.15,
  0.25 0.52 -0.15,
  -0.25 0.52 0.15,
  -0.25 0.52 -0.15
  ]
}


coordIndex[

  
  2,6,7,3,-1

]

solid FALSE

}
}

Shape{
  appearance Appearance{
    texture ImageTexture{
         url "doutai3.jpg"
}
     material Material{
  }
}

geometry IndexedFaceSet{
    coord Coordinate{
      point[
  0.25 0 0.15,
  0.25 0 -0.15,
  -0.25 0 0.15,
  -0.25 0 -0.15,
  0.25 0.52 0.15,
  0.25 0.52 -0.15,
  -0.25 0.52 0.15,
  -0.25 0.52 -0.15
  ]
}


coordIndex[

  1,3,7,5,-1
 
]

solid FALSE

}
}

Shape{
  appearance Appearance{
    texture ImageTexture{
         url "doutai4.jpg"
}
     material Material{
  }
}

geometry IndexedFaceSet{
    coord Coordinate{
      point[
  0.25 0 0.15,
  0.25 0 -0.15,
  -0.25 0 0.15,
  -0.25 0 -0.15,
  0.25 0.52 0.15,
  0.25 0.52 -0.15,
  -0.25 0.52 0.15,
  -0.25 0.52 -0.15
  ]
}


coordIndex[

  0,2,3,1,-1,
  
 
]

solid FALSE

}
}

Shape{
  appearance Appearance{
    texture ImageTexture{
         url "doutai2.jpg"
}
     material Material{
  }
}

geometry IndexedFaceSet{
    coord Coordinate{
      point[
  0.25 0 0.15,
  0.25 0 -0.15,
  -0.25 0 0.15,
  -0.25 0 -0.15,
  0.25 0.52 0.15,
  0.25 0.52 -0.15,
  -0.25 0.52 0.15,
  -0.25 0.52 -0.15
  ]
}


coordIndex[

  0,4,5,1,-1,
 

]

solid FALSE

}
}

Shape{
  appearance Appearance{
    texture ImageTexture{
         url "doutai4.jpg"
}
     material Material{
  }
}

geometry IndexedFaceSet{
    coord Coordinate{
      point[
  0.25 0 0.15,
  0.25 0 -0.15,
  -0.25 0 0.15,
  -0.25 0 -0.15,
  0.25 0.52 0.15,
  0.25 0.52 -0.15,
  -0.25 0.52 0.15,
  -0.25 0.52 -0.15
  ]
}


coordIndex[

  
  4,6,7,5,-1
 
]

solid FALSE

}
}