#VRML V2.0 utf8
Background{
  skyColor 1 1 1
  }
Transform{
  translation  0 0 0
rotation 0 1 0 -1.57
   children[
  Shape{
      appearance Appearance{
      texture ImageTexture{
      url"te.jpg"}
    } 
    geometry IndexedFaceSet{
      coord Coordinate{
        point[
        0 0 0,   
        -0.06 -0.05 -0.02,
	-0.05 -0.07 -0.02,
	-0.03 -0.05 0,
	-0.045 -0.115 -0.02,
	-0.02 -0.115 -0.02,
	-0.008 -0.06 0,
	-0.005 -0.13 -0.02,
	0.02 -0.13 -0.02,
	0.02 -0.065 0,
	0.035 -0.125 -0.02,
	0.045 -0.12 -0.02,
	0.045 -0.065 0,
	0.07 -0.09 -0.02,
	0.08 -0.08 -0.02,
	0.05 0 0,
	
	0 0 -0.025,
        -0.06 -0.05 -0.045,
	-0.05 -0.07 -0.045,
	-0.03 -0.05 -0.025,
	-0.045 -0.115 -0.045,
	-0.02 -0.115 -0.045,
	-0.008 -0.06 -0.025,
	-0.005 -0.13 -0.045,
	0.02 -0.13 -0.045,
	0.02 -0.065 -0.025,
	0.035 -0.125 -0.045,
	0.045 -0.12 -0.045,
	0.045 -0.065 -0.025,
	0.07 -0.09 -0.045,
	0.08 -0.08 -0.045,
	0.05 0 -0.025,
	 
       ]
      }
  coordIndex[	
	0,3,6,9,12,15,-1,
	0,1,2,3,-1,
	3,4,5,6,-1,
	6,7,8,9,-1,
	9,10,11,12,-1,
	12,13,14,15,-1,
	16,19,22,25,28,31,-1,
	16,17,18,19,-1,
	19,20,21,22,-1,
	22,23,24,25,-1,
	25,26,27,28,-1,
	28,29,30,31,-1
	0,16,17,1,-1,
	1,17,18,2,-1,
	3,2,18,19,-1,
	4,3,19,20,-1,
	5,4,20,21,-1,
	6,5,21,22,-1,
	7,6,22,23,-1,
	8,7,23,24,-1,
	9,8,24,25,-1,
	10,9,25,26,-1,
	11,10,26,27,-1,
	12,11,27,28,-1,
	13,12,28,29,-1,
	14,13,29,30,-1,
	15,14,30,31,-1,
	15,31,16,0,-1
      ]
      solid FALSE
      }
}
]
}	 