#VRML V2.0 utf8
Background{
  skyColor 1 1 1
  }
  Shape{
     appearance Appearance{
      texture ImageTexture{
      url"body.jpg"}
textureTransform TextureTransform{
rotation 1.57
translation 0 0.16 }
    } 
       geometry IndexedFaceSet{
      coord Coordinate{
        point[
        0 0 0,  
        0.42 0 0,  
   	0.06 -0.63 0,  
	0.36 -0.63 0, 
	0 0 -0.18,  
        0.06 -0.63 -0.18, 
   	0.42 0 -0.18,  
	0.36 -0.63 -0.18,  
       ]
      }
  coordIndex[	
	0,2,3,1,-1,
	1,3,7,6,-1,
	4,5,2,0,-1,
	4,0,1,6,-1,
	5,2,3,7,-1
      ]
      solid FALSE
      }
}	 

 Shape{
     appearance Appearance{
      texture ImageTexture{
      url"siro.jpg"}
textureTransform TextureTransform{
rotation 1.57
translation 0 0.16 }
    } 
       geometry IndexedFaceSet{
      coord Coordinate{
        point[
        0 0 0,  
        0.42 0 0,  
   	0.06 -0.63 0,  
	0.36 -0.63 0, 
	0 0 -0.18,  
        0.06 -0.63 -0.18, 
   	0.42 0 -0.18,  
	0.36 -0.63 -0.18,  
       ]
      }
  coordIndex[	
	6,7,5,4,-1,
	
      ]
      solid FALSE
      }
}	 