#VRML V2.0 utf8
Background{
  skyColor 1 1 1
}
Transform{
translation -0.055 -0.32 -0.065
 children[
  DEF Asi Shape{
 appearance Appearance{
  texture ImageTexture{
  url"fukurahagil.jpg"
  }
  textureTransform TextureTransform{
   rotation 1.57
   translation 0 0 
   }
 }
geometry IndexedFaceSet{
 coord Coordinate{
  point [
0 0 0,
0 0 0.13,
0.11 0 0.13,
0.11 0 0,

-0.025 0.32 -0.03,
-0.025 0.32 0.16,
0.135 0.32 0.16,
0.135 0.32 -0.03
  ]
 }
   coordIndex[
0,3,2,1,-1,
0,1,5,4,-1,

2,3,7,6,-1,

4,5,6,7,-1

   ]
solid FALSE
}
}

  DEF Asi Shape{
 appearance Appearance{
  texture ImageTexture{
  url"fukurahagil.jpg"
  }
  textureTransform TextureTransform{
   rotation 1.57
   translation 0 0 
   }
 }
geometry IndexedFaceSet{
 coord Coordinate{
  point [
0 0 0,
0 0 0.13,
0.11 0 0.13,
0.11 0 0,

-0.025 0.32 -0.03,
-0.025 0.32 0.16,
0.135 0.32 0.16,
0.135 0.32 -0.03
  ]
 }
   coordIndex[

1,2,6,5,-1,

3,0,4,7,-1
   ]
solid FALSE
}
}


 ]
}
